<svg style="position:absolute;width:0;height:0;overflow:hidden" version="1.1" xmlns="http://www.w3.org/2000/svg" xmlns:xlink="http://www.w3.org/1999/xlink">
  <defs>
    <!-- facebook -->
    <symbol id="icon-facebook" viewBox="0 0 20 20">
      <path d="M18.9,0H1.1A1.1,1.1,0,0,0,0,1.1V18.9A1.1,1.1,0,0,0,1.1,20h9.578V12.255H8.076V9.236h2.606V7.01a3.637,3.637,0,0,1,3.882-3.99,21.662,21.662,0,0,1,2.329.118v2.7h-1.6c-1.253,0-1.5.595-1.5,1.469V9.235h2.99L16.4,12.254H13.8V20h5.1A1.105,1.105,0,0,0,20,18.9V1.1A1.1,1.1,0,0,0,18.9,0Z"/>
    </symbol>
    <!-- instagram -->
      <symbol id="icon-instagram" viewBox="0 0 20 20">
        <path d="M13.75,0H6.25A6.251,6.251,0,0,0,0,6.25v7.5A6.251,6.251,0,0,0,6.25,20h7.5A6.251,6.251,0,0,0,20,13.75V6.25A6.251,6.251,0,0,0,13.75,0Zm4.375,13.75a4.379,4.379,0,0,1-4.375,4.375H6.25A4.38,4.38,0,0,1,1.875,13.75V6.25A4.379,4.379,0,0,1,6.25,1.875h7.5A4.38,4.38,0,0,1,18.125,6.25Z"/>
        <path d="M10,5a5,5,0,1,0,5,5A5,5,0,0,0,10,5Zm0,8.125A3.125,3.125,0,1,1,13.125,10,3.129,3.129,0,0,1,10,13.125Z"/>
        <circle cx="15.375" cy="4.625" r="0.666"/>
      </symbol>
      <!-- pinterest -->
      <symbol id="icon-pinterest" viewBox="0 0 20 20">
          <path d="M18.66,4.98a9.954,9.954,0,0,0-3.639-3.639A9.785,9.785,0,0,0,10,0a9.782,9.782,0,0,0-5.02,1.341A9.964,9.964,0,0,0,1.341,4.98,9.788,9.788,0,0,0,0,10a9.69,9.69,0,0,0,1.654,5.508A9.957,9.957,0,0,0,5.99,19.167a8.631,8.631,0,0,1,.169-2.3l1.289-5.444a3.47,3.47,0,0,1-.325-1.588,2.978,2.978,0,0,1,.56-1.849A1.663,1.663,0,0,1,9.05,7.24a1.221,1.221,0,0,1,1,.429A1.649,1.649,0,0,1,10.4,8.75a4.035,4.035,0,0,1-.15.983q-.15.58-.391,1.341t-.345,1.218a1.481,1.481,0,0,0,.3,1.361,1.593,1.593,0,0,0,1.276.566,2.617,2.617,0,0,0,2.285-1.549,7.426,7.426,0,0,0,.892-3.763,3.694,3.694,0,0,0-1.1-2.774A4.22,4.22,0,0,0,10.1,5.065,4.742,4.742,0,0,0,5.182,9.857a2.959,2.959,0,0,0,.664,1.966.594.594,0,0,1,.143.56c-.017.052-.052.183-.1.391s-.087.343-.1.4q-.1.415-.5.26a2.942,2.942,0,0,1-1.523-1.445A5.2,5.2,0,0,1,3.242,9.61a5.668,5.668,0,0,1,.28-1.745,5.94,5.94,0,0,1,.872-1.687A6.836,6.836,0,0,1,5.814,4.74a6.652,6.652,0,0,1,2.011-1,8.356,8.356,0,0,1,2.553-.378,6.7,6.7,0,0,1,3.32.821A5.857,5.857,0,0,1,15.944,6.3a5.354,5.354,0,0,1,.775,2.787,8.767,8.767,0,0,1-.677,3.516,5.768,5.768,0,0,1-1.914,2.454,4.687,4.687,0,0,1-2.813.892A3.094,3.094,0,0,1,9.83,15.58a2.162,2.162,0,0,1-.95-.879q-.586,2.305-.7,2.748a8.019,8.019,0,0,1-1.016,2.135,10,10,0,0,0,7.858-.925,9.949,9.949,0,0,0,3.64-3.639A9.788,9.788,0,0,0,20,10,9.784,9.784,0,0,0,18.66,4.98Z"/>
      </symbol>
  </defs>
</svg>
